<?xml version="1.0" encoding="utf-8"?>
<!-- Generator: Adobe Illustrator 24.1.1, SVG Export Plug-In . SVG Version: 6.00 Build 0)  -->
<svg version="1.1" id="Слой_1" xmlns="http://www.w3.org/2000/svg" xmlns:xlink="http://www.w3.org/1999/xlink" x="0px" y="0px"
	 viewBox="0 0 16 16" style="enable-background:new 0 0 16 16;" xml:space="preserve">
<style type="text/css">
	.st0{fill:#487272;}
	.st1{fill:#FFFFFF;}
</style>
<g>
	<rect class="st0" width="16" height="16"/>
	<path class="st1" d="M16.1,16.1H-0.1V-0.1h16.3V16.1z M0.1,15.9h15.8V0.1H0.1V15.9z"/>
</g>
<path class="st1" d="M3.9,14.8C3.6,14.9,3.3,15,3,15.2L2.7,16h11.2c-0.2-0.3-0.4-0.5-0.4-0.5h-0.9l-0.2-1l0.4-0.5l-1.2-0.7
	c0,0,0.1-0.1,0.2-0.1c0.1-0.1,0.2-0.2,0.3-0.3c0.1-0.2,0.2-0.2,0.2-0.3c0-0.1,0-0.1-0.1-0.1c-0.2,0.1-0.3,0.1-0.5,0.2
	c-0.1,0-0.1,0.1-0.3,0.1c-0.2,0-0.4-0.1-0.6-0.2c-0.3-0.4-0.5-0.8-0.6-1.2v-0.1l0.8-5.4l0.4-0.2l0.1-0.4l-0.1-0.2l-0.3,0.1l0.2-1.3
	h-0.2l-0.2,1.3l-0.3,0.1L9.9,6H9.3L8.8,5.5L8.6,5.1C8.5,5,8.4,4.8,8.3,4.7L8,4.5V4.3c0.1,0,0.2,0,0.3-0.1C8.3,4.1,8.4,4,8.4,3.9
	l0.1-0.1c0,0-0.2-0.3-0.1-0.3c0.1,0,0.3-0.1,0.5-0.1l0.2-0.1L9,3.1L8.5,3c0,0-0.1-0.2-0.2-0.3c-0.1,0,0,0-0.1,0
	C8,2.7,7.9,2.6,7.8,2.5L7.1,2.7L6.9,3.1v0.4H6.7L6.4,3.7c0,0,0-0.3-0.2-0.4C6,3.2,5.9,3,5.7,3.1c-0.2,0-0.4,0.1-0.6,0.2
	c0,0.1-0.3,0.3-0.3,0.4v0.9c0,0-0.1,0.4,0,0.4c0.1,0,0.1,0.1,0.1,0.2S4.5,5.5,4.5,5.5L4.4,5.9c0,0,0.1,0.4,0,0.4
	C4.3,6.4,4.2,6.5,4.2,6.6v0.7l0.4,0.2l0.2,0.2c0,0,0,0.4-0.1,0.4S4.5,8.1,4.5,8.2c0,0.1,0.2,0.7,0.2,0.7C4.8,9,5,9.1,5.1,9.2
	l0.6,0.1c0.1,0,0.2,0,0.3,0l0,0.2l-4.1,6.3L2,15.8l4-6v0.8c0,0,0,0.7,0,0.7l-0.2,0.4l-0.4,0.7L5.2,13L5,13.5
	c-0.1,0.2-0.2,0.4-0.3,0.6c-0.1,0-0.2,0.1-0.2,0.2c0,0.2-0.1,0.3,0,0.4c0.1,0.1,0.4,0.2,0.5,0.2l0.1,0.1L4.7,15L3.9,14.8z M7.8,8.5
	V6.7c0,0,0.2-0.2,0.3-0.4c0.1-0.2,0-0.5,0.2-0.2c0.1,0.2,0.3,0.3,0.5,0.4l0.5,0.2l0.8-0.5l0.3-0.1h0.3l-0.6,5
	C10,11,10,10.9,9.9,10.7c0-0.1-0.1-0.8-0.1-0.8L8.2,8.6C8.1,8.6,7.9,8.5,7.8,8.5L7.8,8.5L7.8,8.5L7.8,8.5z M5.3,14
	c0.1-0.3,0.3-0.6,0.5-0.9c0.2-0.3,0.4-0.5,0.6-0.8c0.2-0.2,0.3-0.5,0.5-0.7c0-0.1,0.3-1.6,0.3-1.6s0-0.4,0.1-0.3h0
	c0.2,0.1,0.3,0.2,0.5,0.3l0.6,0.2L9,10.4c0,0,0.2,0.6,0.2,0.7c0.1,0.3,0.2,0.6,0.4,0.9c0.1,0,0.3,0.3,0.4,0.6l-0.2,1.3h0.1l0.2-1.2
	l0.2,0.4c0,0.5,0,0.5,0.2,0.5h0.2l-3,1.8v-0.9l-2,0.5c-0.1-0.1-0.2-0.3-0.3-0.4C5.3,14.3,5.3,14.1,5.3,14z"/>
</svg>
