<?xml version="1.0" encoding="utf-8"?>
<!-- Generator: Adobe Illustrator 24.1.1, SVG Export Plug-In . SVG Version: 6.00 Build 0)  -->
<svg version="1.1" id="Слой_1" xmlns="http://www.w3.org/2000/svg" xmlns:xlink="http://www.w3.org/1999/xlink" x="0px" y="0px"
	 viewBox="0 0 16 15.9" style="enable-background:new 0 0 16 15.9;" xml:space="preserve">
<style type="text/css">
	.st0{fill:#487272;}
	.st1{fill:#FFFFFF;}
</style>
<g>
	<rect class="st0" width="16" height="16"/>
	<path class="st1" d="M0,0v16h16V0H0z M15.8,15.8h-0.6l-0.1-0.2c-0.5-0.4-0.9-0.9-1.4-1.4c-0.1-0.1-0.9-1.1-0.9-1.1h-0.8l-0.2-0.8
		l0.3-0.4l-1-0.6c0,0,0.1-0.1,0.2-0.1c0.1,0,0.2-0.1,0.3-0.2c0.1-0.1,0.2-0.2,0.2-0.3c0-0.1,0-0.1-0.1-0.1c-0.1,0-0.3,0.1-0.4,0.2
		c-0.1,0-0.1,0.1-0.3,0.1c-0.2,0-0.3-0.1-0.5-0.2c-0.2-0.3-0.4-0.6-0.5-1l0-0.1l0.6-4.5L10.9,5l0.1-0.3L11,4.5l-0.2,0.1l0.2-1.1
		l-0.1,0l-0.2,1.1l-0.3,0.1L9.8,5.1l-0.5,0L8.9,4.7L8.6,4.3c0-0.1-0.1-0.2-0.2-0.3c0,0-0.3-0.2-0.3-0.2l0-0.2c0.1,0,0.2,0,0.2-0.1
		c0.1-0.1,0.1-0.2,0.1-0.3l0.1-0.1c0,0-0.1-0.3-0.1-0.3c0.1,0,0.3-0.1,0.4-0.1l0.2-0.1L9,2.6L8.6,2.6c0,0-0.1-0.2-0.2-0.2s0,0-0.1,0
		C8.2,2.2,8.1,2.2,8,2.1L7.4,2.2L7.3,2.6V3L7.1,3L6.9,3.2c0,0,0-0.3-0.2-0.4S6.4,2.6,6.2,2.7c-0.2,0-0.3,0.1-0.5,0.2
		c0,0.1-0.3,0.3-0.3,0.3v0.7c0,0-0.1,0.3,0,0.3c0.1,0,0.1,0.1,0.1,0.1S5.3,4.7,5.3,4.7L5.2,5c0,0,0.1,0.3,0,0.4C5.1,5.4,5,5.5,5,5.6
		c0,0,0,0.6,0,0.6l0.3,0.2l0.2,0.2c0,0,0,0.3-0.1,0.3S5.2,6.8,5.2,6.9s0.1,0.6,0.1,0.6c0.1,0.1,0.2,0.2,0.4,0.2
		c0.1,0,0.4,0.1,0.5,0.1c0.1,0,0.2,0,0.3,0c0,0,0,0.1,0,0.2L3,13.3l0.1,0.1l3.4-5.1c0,0.1,0,0.6,0,0.6s0,0.6,0,0.6L6.3,9.9L6,10.4
		L5.8,11l-0.2,0.4c-0.1,0.2-0.1,0.3-0.2,0.5c-0.1,0-0.2,0.1-0.2,0.2c0,0.2-0.1,0.2,0,0.3c0,0.1,0.3,0.1,0.4,0.2c0,0,0.1,0,0.1,0.1
		l-0.3,0.1l-0.7-0.2c0,0-0.7,0.2-0.8,0.3c0,0.1-0.3,1.1-0.3,1.1l-0.9,0L2.8,15l-0.8-0.1l-0.6,0.5l-0.7-0.1v0.5H0.2V0.2h15.6V15.8z
		 M7.7,8.2c0.1,0.1,0.3,0.1,0.4,0.2l0.5,0.2L9,8.8c0,0,0.1,0.5,0.1,0.5c0.1,0.3,0.2,0.5,0.3,0.7c0,0,0.2,0.3,0.4,0.5l-0.2,1.1l0.1,0
		l0.1-1l0.2,0.3c0,0.4,0,0.4,0.2,0.4c0.1,0,0.1,0,0.2,0L8,12.8v-0.7l-1.7,0.4c-0.1-0.1-0.2-0.2-0.2-0.3C5.9,12.1,5.9,12,6,11.8
		c0.1-0.3,0.3-0.5,0.4-0.8c0.2-0.2,0.4-0.4,0.5-0.7c0.1-0.2,0.3-0.4,0.4-0.6c0-0.1,0.2-1.4,0.2-1.4S7.5,8.1,7.7,8.2L7.7,8.2z
		 M8.1,7.1V5.7c0,0,0.2-0.2,0.3-0.3s0-0.4,0.2-0.2c0.1,0.1,0.2,0.3,0.4,0.4C9,5.6,9.2,5.7,9.3,5.7L10,5.3l0.2-0.1l0.3,0L10,9.5
		C9.9,9.3,9.8,9.2,9.8,9.1c0-0.1-0.1-0.7-0.1-0.7S8.4,7.3,8.3,7.3C8.3,7.2,8,7.2,8.1,7.1L8.1,7.1z"/>
</g>
</svg>
